#!OML:ASF I:\Actors\actors\Patient Classification 1\Patient 1\Session 1\Subject1.ASF
:FULLY-SPECIFIED
:DEGREES
233
root 1.00906 17.5939 8.66598 8.90981 -1.60098 -7.25361
lowerback -3.11898 1.05952 5.79774
upperback -7.88354 1.52151 1.06416
thorax -6.37025 0.444229 -2.16171
lowerneck -10.8689 -4.72591 -2.71676
upperneck 26.071 -8.6462 8.95316
head 10.6865 -3.24713 2.57767
rclavicle -2.21645e-014 3.26007e-014
rhumerus 11.2167 77.0957 -88.7972
rradius 107.946
rwrist -26.7207
rhand 34.5777 -37.6395
rfingers 7.12502
rthumb 57.7687 -53.5666
lclavicle -2.21645e-014 3.26007e-014
lhumerus -128.925 -77.9482 219.6
lradius 90.2699
lwrist 52.7313
lhand 38.2446 -30.6974
lfingers 7.12502
lthumb 60.9247 -17.9259
rfemur -4.94198 24.1869 23.1043
rtibia 4.13906
rfoot -13.3164 -22.2157
rtoes 2.89242
lfemur 3.24239 -40.3712 -12.6895
ltibia -2.9706
lfoot -19.1132 48.527
ltoes 8.48089
234
root 1.01612 17.5935 8.71674 8.95726 -1.52667 -7.58823
lowerback -3.75384 1.00474 6.12446
upperback -7.97661 1.41388 1.26798
thorax -6.11936 0.383661 -2.11718
lowerneck -11.0669 -4.53353 -2.42995
upperneck 26.9791 -8.3894 8.4526
head 11.0096 -3.12393 2.39085
rclavicle -1.18774e-014 0
rhumerus 10.7222 77.242 -89.6123
rradius 108.053
rwrist -27.0013
rhand 35.3952 -37.8951
rfingers 7.12502
rthumb 58.4809 -53.1769
lclavicle -1.18774e-014 0
lhumerus -128.532 -77.7439 219.466
lradius 89.9844
lwrist 54.0839
lhand 37.8921 -29.0454
lfingers 7.12502
lthumb 60.6261 -15.9396
rfemur -4.55284 23.7436 23.607
rtibia 3.85437
rfoot -13.3106 -21.8335
rtoes 2.65917
lfemur 3.88417 -40.8494 -12.8083
ltibia -3.26629
lfoot -19.4548 48.9731
ltoes 8.68693
235
root 1.01861 17.5942 8.74266 8.94479 -1.60092 -7.63133
lowerback -3.99732 0.975078 6.19117
upperback -8.06653 1.35969 1.29834
thorax -6.08253 0.353008 -2.11804
lowerneck -11.1833 -4.42713 -2.16148
upperneck 27.5675 -8.24599 8.05969
head 11.2153 -3.05586 2.22674
rclavicle 1.3418e-015 6.36111e-015
rhumerus 11.2947 77.3091 -89.4977
rradius 108.462
rwrist -27.152
rhand 35.536 -38.0617
rfingers 7.12502
rthumb 58.6031 -53.2294
lclavicle 1.3418e-015 6.36111e-015
lhumerus -130.453 -77.3747 221.471
lradius 90.0348
lwrist 57.48
lhand 38.1227 -25.4679
lfingers 7.12502
lthumb 60.8216 -12.58
rfemur -4.41766 23.5315 23.7028
rtibia 3.85672
rfoot -13.3255 -21.5638
rtoes 2.40089
lfemur 4.20889 -40.9392 -13.0258
ltibia -3.34657
lfoot -19.6792 49.1349
ltoes 8.92173
236
root 1.01879 17.595 8.75633 8.86634 -1.70097 -7.57719
lowerback -4.0522 0.917777 6.15001
upperback -8.11163 1.28048 1.30352
thorax -6.10681 0.31442 -2.0882
lowerneck -11.3471 -4.32215 -2.06
upperneck 28.141 -8.10887 7.82289
head 11.4439 -2.98949 2.14572
rclavicle 7.35503e-015 3.57812e-015
rhumerus 12.4342 77.3804 -88.9471
rradius 109.128
rwrist -27.2919
rhand 34.9015 -38.3493
rfingers 7.12502
rthumb 58.0514 -54.0245
lclavicle 7.35503e-015 3.57812e-015
lhumerus -129.29 -77.7072 220.445
lradius 89.3387
lwrist 56.0811
lhand 43.7143 -24.8778
lfingers 7.12502
lthumb 65.3933 -18.3695
rfemur -4.34869 23.41 23.6805
rtibia 3.97632
rfoot -13.295 -21.3869
rtoes 1.95502
lfemur 4.42355 -40.7944 -13.236
ltibia -3.37341
lfoot -19.4872 49.136
ltoes 8.5458
237
root 1.0197 17.594 8.77062 8.73901 -1.80207 -7.61538
lowerback -4.07989 0.829836 6.17405
upperback -8.14325 1.16462 1.37223
thorax -6.13611 0.255981 -2.02817
lowerneck -11.4688 -4.17256 -1.9992
upperneck 28.7355 -7.90038 7.59675
head 11.6728 -2.89559 2.08654
rclavicle -1.3418e-015 -4.77083e-015
rhumerus 13.4726 77.4721 -88.5357
rradius 110.002
rwrist -27.7998
rhand 33.727 -38.8191
rfingers 7.12502
rthumb 57.0228 -55.3861
lclavicle -1.3418e-015 -4.77083e-015
lhumerus -128.692 -77.8828 219.918
lradius 88.9375
lwrist 56.6431
lhand 46.7157 -23.1284
lfingers 7.12502
lthumb 67.669 -21.1348
rfemur -4.19151 23.3185 23.79
rtibia 4.04835
rfoot -13.3299 -21.2087
rtoes 1.67787
lfemur 4.73629 -40.636 -13.3808
ltibia -3.44287
lfoot -19.3679 49.088
ltoes 8.30759
